<svg width="48" height="48" xmlns="http://www.w3.org/2000/svg" fill="none">
 <g>
  <title>Layer 1</title>
  <path stroke-width="0.7" stroke="#ffffff" d="m22.15758,0.50352l-0.71311,0.06838c-6.66216,0.59588 -12.89451,4.19072 -16.85078,9.70996a23.20035,23.20035 0 0 0 -4.1321,10.24723a17.87648,17.87648 0 0 0 -0.21491,3.419c0,1.73881 0.01954,2.11978 0.21491,3.40923a23.54225,23.54225 0 0 0 20.98288,19.96695c0.71311,0.07815 3.78044,0.07815 4.49354,0a23.65947,23.65947 0 0 0 8.44981,-2.47145c0.39074,-0.19537 0.47866,-0.26375 0.42005,-0.30283c-0.02931,-0.02931 -1.75834,-2.34446 -3.80974,-5.11873l-3.75113,-5.06989l-4.69868,-6.94545a672.27283,672.27283 0 0 0 -4.72799,-6.95522c-0.01954,0 -0.03907,3.08687 -0.04884,6.85753c-0.01954,6.60355 -0.01954,6.87707 -0.09769,7.03337a0.83033,0.83033 0 0 1 -0.41028,0.41028c-0.14653,0.07815 -0.27352,0.09769 -0.96709,0.09769l-0.79125,0l-0.21491,-0.14653a0.85963,0.85963 0 0 1 -0.30283,-0.33213l-0.09769,-0.19537l0.00977,-9.20199l0.01954,-9.18245l0.13676,-0.1856c0.07815,-0.09769 0.23445,-0.21491 0.3419,-0.28329c0.1856,-0.08792 0.26375,-0.09769 1.05501,-0.09769c0.92801,0 1.08431,0.03907 1.32853,0.30283c0.06838,0.07815 2.61798,3.90743 5.66577,8.51819l9.24107,14.00813l3.71206,5.6267l0.19537,-0.12699c1.66066,-1.07454 3.419,-2.61798 4.80614,-4.22002a23.33711,23.33711 0 0 0 5.51924,-11.98603c0.19537,-1.28945 0.21491,-1.66066 0.21491,-3.419c0,-1.73881 -0.01954,-2.11978 -0.21491,-3.40923a23.54225,23.54225 0 0 0 -20.9145,-19.96695c-0.43959,-0.03907 -3.46784,-0.09769 -3.84882,-0.05861zm9.59273,14.18396a0.92801,0.92801 0 0 1 0.46889,0.53727c0.02931,0.11722 0.03907,2.66682 0.02931,8.41074l0,8.24467l-1.46529,-2.22723l-1.45552,-2.22723l0,-5.9979c0,-3.86835 0.01954,-6.04674 0.04884,-6.1542a0.93778,0.93778 0 0 1 0.44935,-0.57635c0.19537,-0.09769 0.25398,-0.09769 0.97686,-0.09769c0.6838,0 0.80102,0 0.94755,0.08792z" fill="#000000" id="svg_1"/>
 </g>

</svg>