<svg width="325" height="340" xmlns="http://www.w3.org/2000/svg" xml:space="preserve" enable-background="new 0 0 325 450" version="1.1">

 <g>
  <title>Layer 1</title>
  <g id="svg_1">
   <polygon id="svg_2" points="38.845001220703125,304.2539978027344 11.774999618530273,0.6320037841796875 309.2250061035156,0.6320037841796875 282.12701416015625,304.2049865722656 160.3179931640625,337.9750061035156 " fill="#EFC725"/>
   <polygon id="svg_3" points="160.25,311.7869873046875 258.6780090332031,284.5 281.83599853515625,25.08300018310547 160.25,25.08300018310547 " fill="#FBDE34"/>
   <polygon id="svg_4" points="160.1929931640625,234.42599487304688 160.031005859375,234.47299194335938 118.55899810791016,223.27200317382812 115.90599822998047,193.57501220703125 95.75599670410156,193.57501220703125 78.5270004272461,193.57501220703125 83.74400329589844,252.04299926757812 160.02099609375,273.218994140625 160.1929931640625,273.1700134277344 " fill="#EBEBEB"/>
   <polygon id="svg_5" points="165.20899963378906,174.93701171875 165.20899963378906,137.6999969482422 119.3550033569336,137.6999969482422 124.73200225830078,79.25799560546875 165.31199645996094,78.177001953125 165.20899963378906,39.45399475097656 91.06500244140625,39.45399475097656 88.31099700927734,66.90299987792969 79.55899810791016,164.93798828125 78.6510009765625,174.93701171875 88.68599700927734,174.93701171875 " fill="#EBEBEB"/>
   <polygon id="svg_6" points="164.95700073242188,78.22900390625 165.1199951171875,78.18299865722656 205.79100036621094,80.63200378417969 209.24200439453125,119.07899475097656 229.39300537109375,119.07899475097656 246.6230010986328,119.07899475097656 240.10899353027344,47.13299560546875 165.12899780273438,39.43699645996094 164.95700073242188,39.48500061035156 " fill="#FFFFFF"/>
   <polyline id="svg_7" points="242.78399658203125,78.34300231933594 239.59300231933594,39.45399475097656 160.99000549316406,39.45399475097656 160.99000549316406,63.60600280761719 160.99000549316406,78.24600219726562 160.99000549316406,78.34300231933594 242.78399658203125,78.34300231933594 " fill="#FFFFFF"/>
   <polygon id="svg_8" points="160.06399536132812,137.71800231933594 160.06399536132812,174.95401000976562 205.91799926757812,174.95401000976562 201.5959930419922,223.24700927734375 160.06399536132812,234.45901489257812 160.06399536132812,273.20098876953125 236.4040069580078,252.04299926757812 236.96299743652344,245.75201416015625 245.71499633789062,147.7169952392578 246.6230010986328,137.71800231933594 236.58799743652344,137.71800231933594 " fill="#FFFFFF"/>
   <path id="svg_9" d="m238,76.693" fill="#FFFFFF"/>
   <g id="svg_10">
    <polygon id="svg_11" points="212.94500732421875,-66.42900085449219 188.25599670410156,-66.42900085449219 213.9320068359375,-38.569000244140625 213.9320068359375,-25.308998107910156 161.0489959716797,-25.308998107910156 161.0489959716797,-40.834999084472656 186.718994140625,-40.834999084472656 161.0489959716797,-68.69400024414062 161.0489959716797,-81.9749984741211 212.94500732421875,-81.9749984741211 212.94500732421875,-66.42900085449219 " fill="#151515"/>
    <path id="svg_12" d="m151.631,-81.95l0,56.617l-45.543,0l0,-18.714l26.613,0l0,-37.903l18.928,0l0.002,0z" fill="#020202"/>
   </g>
   <path id="svg_13" d="m237.51,76.693" fill="#FFFFFF"/>
  </g>
 </g>
</svg>